<svg xmlns="http://www.w3.org/2000/svg" width="93.991" height="57.697" viewBox="0 0 101 62">
  <defs>
    <style>
      .cls-1 {
        fill: #fff;
        fill-rule: evenodd;
      }
    </style>
  </defs>
  <path id="logo_print" class="cls-1" d="M564.07,166.612V116.994h12.921v39.1h0Zm-4.361,6.837a0.054,0.054,0,0,0-.067.053v5.412a0.1,0.1,0,0,1-.111.089h-0.587a0.1,0.1,0,0,1-.111-0.089V173.5a0.054,0.054,0,0,0-.067-0.053h-1.574a0.1,0.1,0,0,1-.111-0.091v-0.377a0.1,0.1,0,0,1,.111-0.09h4.091a0.1,0.1,0,0,1,.111.09v0.377a0.1,0.1,0,0,1-.111.091h-1.574Zm-13.2-48.771h12.924v41.934H546.508V124.678ZM541.452,179a0.1,0.1,0,0,1-.111-0.089v-5.933a0.1,0.1,0,0,1,.111-0.09h0.587a0.1,0.1,0,0,1,.111.09v5.933a0.1,0.1,0,0,1-.111.089h-0.587Zm-12.5-22.906v-39.1H541.87v49.618L528.949,156.1h0Zm-4.4,20.425h-0.931a0.054,0.054,0,0,0-.066.054v2.338a0.1,0.1,0,0,1-.112.089H522.85a0.1,0.1,0,0,1-.111-0.089v-5.933a0.1,0.1,0,0,1,.111-0.09h1.885c1.441,0,2.228.476,2.228,1.762C526.963,176.073,526.032,176.522,524.546,176.522Zm-0.022-3.119h-0.909a0.054,0.054,0,0,0-.066.054v2.49a0.054,0.054,0,0,0,.066.054h0.909c1.076,0,1.608-.278,1.608-1.331C526.132,173.681,525.633,173.4,524.524,173.4ZM511.2,116.994h12.921v49.618H511.2V116.994Zm0.321,56.127c0.158,1.014.564,3.313,0.721,4.054a0.119,0.119,0,0,0,.146.091,0.114,0.114,0,0,0,.147-0.1c0.123-.743.439-3.295,0.529-4.227a0.1,0.1,0,0,1,.113-0.09h1.9a0.1,0.1,0,0,1,.113.09c-0.057.525-.845,4.733-1.138,5.964a0.148,0.148,0,0,1-.18.1h-2.6a0.133,0.133,0,0,1-.135-0.108c-0.135-.471-0.529-2.453-0.743-3.674a0.088,0.088,0,0,0-.1-0.064,0.087,0.087,0,0,0-.1.064c-0.191,1.221-.563,3.221-0.7,3.691a0.15,0.15,0,0,1-.18.091H506.78a0.132,0.132,0,0,1-.134-0.108c-0.282-1.231-1.082-5.475-1.138-5.955a0.1,0.1,0,0,1,.112-0.09h1.949a0.1,0.1,0,0,1,.113.09c0.09,0.95.416,3.494,0.551,4.235,0.012,0.073.045,0.091,0.147,0.091s0.124-.018.135-0.091c0.146-.724.518-3.04,0.676-4.054a0.1,0.1,0,0,1,.112-0.09h2.106A0.1,0.1,0,0,1,511.522,173.121Zm-17.965-56.127,12.925,10.544h0V156.1h0l-12.925,10.515V116.994Zm1.411,58.933c0,1.637-.564,3.076-3.008,3.076h-2.928a0.1,0.1,0,0,1-.113-0.091V172.94a0.1,0.1,0,0,1,.113-0.09h2.928C494.4,172.85,494.968,174.289,494.968,175.927Zm-3.267-1.81H491a0.054,0.054,0,0,0-.067.054v3.493c0,0.045.011,0.054,0.056,0.054h0.721c0.99,0,1.137-.48,1.137-1.836C492.85,174.569,492.7,174.117,491.7,174.117ZM476,116.994h12.921v49.618H476V116.994Zm25.264,55.856a0.1,0.1,0,0,1,.113.09v5.972a0.1,0.1,0,0,1-.113.091h-1.8a0.1,0.1,0,0,1-.112-0.091V172.94a0.1,0.1,0,0,1,.112-0.09h1.8Zm32.623,0.041c1.6,0,2.262.558,2.262,1.7a1.651,1.651,0,0,1-1.275,1.7c-0.022.01-.066,0.054-0.044,0.081l1.907,2.535c0.044,0.054.011,0.1-.055,0.1h-0.765a0.15,0.15,0,0,1-.133-0.081l-1.708-2.382a0.19,0.19,0,0,0-.11-0.053h-1.187a0.053,0.053,0,0,0-.066.053v2.374a0.1,0.1,0,0,1-.112.089h-0.587a0.1,0.1,0,0,1-.111-0.089v-5.933a0.1,0.1,0,0,1,.111-0.09h1.873Zm-1.174,3.038a0.053,0.053,0,0,0,.066.053h0.909c1.131,0,1.63-.511,1.63-1.329,0-.944-0.41-1.25-1.641-1.25h-0.9a0.054,0.054,0,0,0-.066.054v2.472Zm16.128-3.038a0.148,0.148,0,0,1,.155.107l2.527,5.107c0.067,0.116.089,0.125,0.144,0.125s0.067-.018.067-0.072v-5.177a0.1,0.1,0,0,1,.111-0.09h0.577a0.1,0.1,0,0,1,.111.09v5.933a0.1,0.1,0,0,1-.111.089H551.3a0.165,0.165,0,0,1-.166-0.135l-2.573-5.168a0.15,0.15,0,0,0-.144-0.126c-0.066,0-.077.018-0.077,0.117v5.223a0.1,0.1,0,0,1-.111.089h-0.566a0.1,0.1,0,0,1-.111-0.089v-5.933a0.1,0.1,0,0,1,.111-0.09h1.176Z" transform="translate(-476 -117)"/>
</svg>
