<?xml version="1.0" encoding="utf-8"?>
<!-- Generator: Adobe Illustrator 24.1.1, SVG Export Plug-In . SVG Version: 6.00 Build 0)  -->
<svg version="1.1" id="Layer_1" xmlns="http://www.w3.org/2000/svg" xmlns:xlink="http://www.w3.org/1999/xlink" x="0px" y="0px"
	 viewBox="0 0 6076.3 735" style="enable-background:new 0 0 6076.3 735;" height="50" xml:space="preserve">
<g>
	<polygon points="1502.8,579.2 1502.8,579.2 1502.8,579.2 1502.8,0 1310.6,0 1310.6,735 	"/>
	<rect x="523.9" width="192.3" height="735"/>
	<rect width="192.3" height="735"/>
	<polygon points="453.6,579.2 453.6,579.2 453.6,579.2 453.6,156.2 261.3,0 261.3,735 	"/>
	<polygon points="980.2,735 980.2,0 788,0 788,579.2 788,579.2 	"/>
	<rect x="1049.2" y="113.8" width="192.3" height="621.1"/>
	<path d="M1760.4,580.7h-65c-0.1,0-0.2-0.1-0.2-0.2V113c0-0.1,0.1-0.2,0.2-0.2h65c0.1,0,0.2,0.1,0.2,0.2v467.5
		C1760.5,580.6,1760.5,580.7,1760.4,580.7z"/>
</g>
<g>
	<path d="M2033.5,265.2c-19.8,0-26.7,6.6-26.7,23c0,13.2,4.3,19.1,38.8,43.4c27.6,19.4,42.1,33.9,42.1,66.2
		c0,42.5-22.4,59.6-63.9,59.6c-26,0-49-3-61.9-5.9c-2-0.3-3-1.3-3-2.6l2.3-29.6c0-1.3,0.7-2.3,2.3-2.3c16.5,3,33.6,4.6,50.7,4.6
		c19.4,0,27.6-5.6,27.6-23.7c0-12.2-1.3-18.1-46.4-52.3c-28-21.1-33.9-36.2-33.9-59.2c0-44.1,24.4-56.6,72.1-56.6
		c18.8,0,42.8,3.3,50.7,6.6c1.3,0.7,1.6,2,1.6,3l-2,28.6c0,1-0.7,2-2,2C2070.3,266.8,2048,265.2,2033.5,265.2z M1988.4,159.2
		c7.2,0,9.9,0,13.8,4.6l22.4,22.4c1,0.7,2,1,3.3,1c2,0,3-0.3,3.9-1l23-22.4c4.3-4.3,6.6-4.6,13.8-4.6h16.8c2,0,3.6,1.3,3.3,3.3
		l-38.5,49.4c-1.3,2-3,3.3-4.9,3.3h-33.9c-2,0-3.6-1.3-4.9-3.3l-38.5-49.4c-0.3-2,1.3-3.3,3.3-3.3H1988.4z"/>
	<path d="M2277.4,364.6c0,62.2-20.7,90.5-81.6,90.5c-7.2,0-18.1-0.7-22.1-0.7c-2,0-2.6,0.7-2.6,2.6v54c0,2-1.3,3.3-3.3,3.3h-36.5
		c-2,0-3.3-1.3-3.3-3.3V286.2c0-1.3,0.7-2.6,3.6-3.6c12.5-4.3,40.2-6.9,60.9-6.9C2260.6,275.7,2277.4,300.4,2277.4,364.6z
		 M2171.1,420.2c0,1.6,0.7,3,2.6,3.3c5.9,1.3,13.2,1.3,19.1,1.3c29.6,0,39.8-10.9,39.8-59.9c0-47.1-8.6-57.3-40.5-57.3
		c-8.2,0-13.5,0.7-18.4,1.6c-2.3,0.3-2.6,2.3-2.6,3.9V420.2z"/>
	<path d="M2397.9,458.4c-64.2,0-84.6-35.2-84.6-90.8c0-58.9,25-91.8,78.7-91.8c52.7,0,68.5,28.6,68.5,76.4c0,22.4-1,28-8.9,28h-92.8
		c-1.6,0-2,0.7-2,2c0,35.2,16.8,44.1,47.4,44.1c16.8,0,36.2-4.3,46.4-7.6c1.6,0,3,0.3,3.6,1.6l2.3,25.7c0,1.3-0.7,2.3-2.3,3
		C2441.3,454.8,2420.9,458.4,2397.9,458.4z M2358,353.4h60.9c2.6,0,3.6-0.7,3.6-9.5c0-25-6.3-38.2-31.3-38.2
		c-29.3,0-35.2,19.8-35.2,45.4C2356.1,352.4,2356.7,353.4,2358,353.4z"/>
	<path d="M2569,458.4c-54,0-73.4-31.9-73.4-90.2c0-56.9,18.8-92.5,73.1-92.5c15.5,0,28.6,2,35.9,4.6c1,0.3,1.6,0.7,1.6,2.3
		l-1.3,28.3c0,1-1,2-2.6,1.3c-6.6-1.6-16.5-3.3-25.7-3.3c-27.3,0-35.5,13.5-35.5,59.6c0,42.8,7.9,56,35.9,56c8.6,0,18.4-1.3,25-3
		c1.3-0.3,3-0.7,3.3,1l2,28.3c0.3,1.6-0.3,2.3-1.3,3C2596.4,456.7,2582.5,458.4,2569,458.4z"/>
	<path d="M2643.4,249.7c-2,0-3.3-1.3-3.3-3.3v-32.6c0-2,1.3-3.3,3.3-3.3h38.5c2,0,3.3,1.3,3.3,3.3v32.6c0,2-1.3,3.3-3.3,3.3H2643.4z
		 M2644.4,455.1c-2,0-3.3-1.3-3.3-3.3V282.3c0-2,1.3-3.3,3.3-3.3h36.5c2,0,3.3,1.3,3.3,3.3v169.5c0,2-1.3,3.3-3.3,3.3H2644.4z"/>
	<path d="M2745.5,313.5c-2,0.3-4.6,0.3-4.9-1.6l-2.3-25.3c-0.3-2,0-3.9,2-4.6c12.5-3.6,35.5-6.3,57.6-6.3
		c40.8,0,65.5,13.8,65.5,52.3v119.5c0,2-0.7,3.6-4.3,4.9c-11.5,3.6-34.9,5.9-57.6,5.9c-59.2,0-77-11.2-77-49
		c0-33.6,7.6-48.7,56-54.6l38.8-4.9c1.3-0.3,2-0.7,2-2v-13.2c0-19.7-9.2-24.4-34.9-24.4C2774.4,310.3,2756,311.9,2745.5,313.5z
		 M2821.2,378.7c0-1.3-0.7-2-2-2h-22.1c-23.7,0-30.9,4.3-30.9,28c0,23.4,5.9,26,31.9,26c7.6,0,16.5-0.7,20.7-1.6
		c2-0.7,2.3-1.3,2.3-2.3V378.7z"/>
	<path d="M2950.2,458.4c-27.3,0-41.1-9.5-41.1-40.2V216.8c0-2.3,1.3-3.6,3.3-3.6h36.5c2,0,3.3,1.3,3.3,3.6v195.5
		c0,10.5,4.3,13.8,13.8,13.8h10.5c1.6,0,3.3,0.7,3.3,3.3l-1,21.7c0,2-1.6,3.6-3.3,3.9C2968.3,457.1,2960.4,458.4,2950.2,458.4z"/>
	<path d="M3010.4,249.7c-2,0-3.3-1.3-3.3-3.3v-32.6c0-2,1.3-3.3,3.3-3.3h38.5c2,0,3.3,1.3,3.3,3.3v32.6c0,2-1.3,3.3-3.3,3.3H3010.4z
		 M3011.4,455.1c-2,0-3.3-1.3-3.3-3.3V282.3c0-2,1.3-3.3,3.3-3.3h36.5c2,0,3.3,1.3,3.3,3.3v169.5c0,2-1.3,3.3-3.3,3.3H3011.4z"/>
	<path d="M3089.1,452.1l1.6-28.6c0-1,1.3-1.6,2.6-1.3c10.9,2.3,26.7,3.6,37.5,3.6c23.4,0,27-2.3,27-18.8c0-9.9-5.6-14.8-31.6-32.6
		c-26.7-17.8-35.9-27-35.9-49c0-37.2,19.8-49.7,62.5-49.7c15.8,0,33.9,1.6,44.1,3.6c1,0.3,1.6,0.7,1.6,2.3l-2,29.3
		c0,0.7-1,1.6-2.3,1.3c-9.9-1.6-24-3.3-33.6-3.3c-20.7,0-27.6,1.3-27.6,15.5c0,11.5,5.6,15.1,31.6,31.3c29,18.4,36.9,30.6,36.9,51
		c0,42.1-23,51.7-63.9,51.7c-18.1,0-36.2-1.6-46.7-3.6C3090.1,454.4,3089.1,453.8,3089.1,452.1z"/>
	<path d="M3287.6,458.4c-26.3,0-39.8-12.2-39.8-36.2v-108c0-1.3-0.7-2-2-2h-22.7c-2,0-3.3-1.3-3.3-3.3v-26.7c0-2,1.3-3.3,3.3-3.3
		h22.7c1.3,0,2-0.7,2-2v-41.1c0-2,1.3-3.3,3.3-3.3h36.5c2,0,3.3,1.3,3.3,3.3V277c0,1.3,0.7,2,2,2h27.6c2,0,3.3,1.3,3.3,3.3v26.7
		c0,2-1.3,3.3-3.3,3.3h-27.6c-1.3,0-2,0.7-2,2V412c0,10.9,3.6,13.8,14.2,13.8h10.2c1.6,0,3.3,0.7,3.3,3.3l-1,22.1
		c0,2-1.6,3.9-3.3,4.3C3307,457.1,3296.8,458.4,3287.6,458.4z"/>
	<path d="M3355.4,249.7c-2,0-3.3-1.3-3.3-3.3v-32.6c0-2,1.3-3.3,3.3-3.3h38.5c2,0,3.3,1.3,3.3,3.3v32.6c0,2-1.3,3.3-3.3,3.3H3355.4z
		 M3356.4,455.1c-2,0-3.3-1.3-3.3-3.3V282.3c0-2,1.3-3.3,3.3-3.3h36.5c2,0,3.3,1.3,3.3,3.3v169.5c0,2-1.3,3.3-3.3,3.3H3356.4z"/>
	<path d="M3615.4,455.1c-2,0-3.3-1.3-3.3-3.3V340.5c0-25-5.6-31.6-31.9-31.6c-9.9,0-17.8,0.7-23.4,2c-2.3,0.7-3.3,1.3-3.3,3.3v137.6
		c0,2-1.3,3.3-3.3,3.3h-36.5c-2,0-3.3-1.3-3.3-3.3V285.9c0-2,1.3-3,3.3-3.3c17.8-3,47.4-6.9,68.1-6.9c57.9,0,73.4,14.8,73.4,62.9
		v113.2c0,2-1.3,3.3-3.3,3.3H3615.4z"/>
	<path d="M3713.2,313.5c-2,0.3-4.6,0.3-4.9-1.6l-2.3-25.3c-0.3-2,0-3.9,2-4.6c12.5-3.6,35.5-6.3,57.6-6.3
		c40.8,0,65.5,13.8,65.5,52.3v119.5c0,2-0.7,3.6-4.3,4.9c-11.5,3.6-34.9,5.9-57.6,5.9c-59.2,0-77-11.2-77-49
		c0-33.6,7.6-48.7,56-54.6l38.8-4.9c1.3-0.3,2-0.7,2-2v-13.2c0-19.7-9.2-24.4-34.9-24.4C3742.2,310.3,3723.7,311.9,3713.2,313.5z
		 M3788.9,378.7c0-1.3-0.7-2-2-2h-22.1c-23.7,0-30.9,4.3-30.9,28c0,23.4,5.9,26,31.9,26c7.6,0,16.5-0.7,20.7-1.6
		c2-0.7,2.3-1.3,2.3-2.3V378.7z"/>
	<path d="M3935.1,455.1c-2,0-3.3-1.6-3.3-3.3c0-10.9,0-28.3,0-28.3c0-3,1.3-5.3,4.3-9.2l71.8-92.5c2.3-3,2.3-4.3,2.3-6.6
		c0-2.6-1-3-3.6-3h-66.8c-2,0-3.3-1.3-3.3-3.3v-26.7c0-2,1.3-3.3,3.3-3.3h114.9c2.3,0,3.6,1.3,3.6,3.6v26c0,3-0.7,8.2-3,11.2
		l-73.4,93.5c-1.3,1.6-1.3,3-1.3,5.3s0.7,2.6,2.6,2.6h74.7c2,0,3.3,1.3,3.3,3.3v27.3c0,2-1.3,3.3-3.3,3.3H3935.1z"/>
	<path d="M4108.2,313.5c-2,0.3-4.6,0.3-4.9-1.6l-2.3-25.3c-0.3-2,0-3.9,2-4.6c12.5-3.6,35.5-6.3,57.6-6.3
		c40.8,0,65.5,13.8,65.5,52.3v119.5c0,2-0.7,3.6-4.3,4.9c-11.5,3.6-34.9,5.9-57.6,5.9c-59.2,0-77-11.2-77-49
		c0-33.6,7.6-48.7,56-54.6l38.8-4.9c1.3-0.3,2-0.7,2-2v-13.2c0-19.7-9.2-24.4-34.9-24.4C4137.2,310.3,4118.7,311.9,4108.2,313.5z
		 M4183.9,378.7c0-1.3-0.7-2-2-2h-22.1c-23.7,0-30.9,4.3-30.9,28c0,23.4,5.9,26,31.9,26c7.6,0,16.5-0.7,20.7-1.6
		c2-0.7,2.3-1.3,2.3-2.3V378.7z M4146.7,256.3c-2,0-3.3-1.3-3.3-3.3l26.7-60.2c1.3-2.3,3-3.3,4.9-3.3h31.9c2,0,3.6,1.3,3.3,3.3
		l-38.8,58.3c-3,4.6-5.3,5.3-13.2,5.3H4146.7z"/>
	<path d="M4315.6,341.5c0,2,2,3,5.9,3c3.3,0,5.6-0.3,6.6-1.3c13.5-17.8,32.9-46.7,42.1-61.2c1.3-2,2.3-3,4.9-3h43.8c3,0,4.9,1,3.9,3
		c-5.3,7.6-38.5,50-58.3,73.4c-1,1-2,2.6-2,4c0,1.3,1,2.6,2.6,4.6c14.2,19.4,52.3,76,59.6,87.6c1,1.6,1,3.6-3.6,3.6h-41.8
		c-2.3,0-3.3-0.3-4.6-2.6c-10.9-19.1-34.6-56.3-45.8-74.1c-1-1.6-4.6-3.3-8.2-3.3c-4.6,0-5.3,1-5.3,3v73.7c0,2-1.3,3.3-3.3,3.3
		h-36.2c-2,0-3.3-1.3-3.3-3.3V216.4c0-2,1.3-3.3,3.3-3.3h36.2c2,0,3.3,1.3,3.3,3.3V341.5z"/>
	<path d="M4460.7,313.5c-2,0.3-4.6,0.3-4.9-1.6l-2.3-25.3c-0.3-2,0-3.9,2-4.6c12.5-3.6,35.5-6.3,57.6-6.3
		c40.8,0,65.5,13.8,65.5,52.3v119.5c0,2-0.7,3.6-4.3,4.9c-11.5,3.6-34.9,5.9-57.6,5.9c-59.2,0-77-11.2-77-49
		c0-33.6,7.6-48.7,56-54.6l38.8-4.9c1.3-0.3,2-0.7,2-2v-13.2c0-19.7-9.2-24.4-34.9-24.4C4489.7,310.3,4471.3,311.9,4460.7,313.5z
		 M4536.5,378.7c0-1.3-0.7-2-2-2h-22.1c-23.7,0-30.9,4.3-30.9,28c0,23.4,5.9,26,31.9,26c7.6,0,16.5-0.7,20.7-1.6
		c2-0.7,2.3-1.3,2.3-2.3V378.7z"/>
	<path d="M4616.8,455.1c-2,0-3.3-1.6-3.3-3.3c0-10.9,0-28.3,0-28.3c0-3,1.3-5.3,4.3-9.2l71.8-92.5c2.3-3,2.3-4.3,2.3-6.6
		c0-2.6-1-3-3.6-3h-66.8c-2,0-3.3-1.3-3.3-3.3v-26.7c0-2,1.3-3.3,3.3-3.3h114.9c2.3,0,3.6,1.3,3.6,3.6v26c0,3-0.7,8.2-3,11.2
		l-73.4,93.5c-1.3,1.6-1.3,3-1.3,5.3s0.7,2.6,2.6,2.6h74.7c2,0,3.3,1.3,3.3,3.3v27.3c0,2-1.3,3.3-3.3,3.3H4616.8z"/>
	<path d="M4820.2,341.5c0,2,2,3,5.9,3c3.3,0,5.6-0.3,6.6-1.3c13.5-17.8,32.9-46.7,42.1-61.2c1.3-2,2.3-3,4.9-3h43.8c3,0,4.9,1,4,3
		c-5.3,7.6-38.5,50-58.3,73.4c-1,1-2,2.6-2,4c0,1.3,1,2.6,2.6,4.6c14.2,19.4,52.3,76,59.6,87.6c1,1.6,1,3.6-3.6,3.6H4884
		c-2.3,0-3.3-0.3-4.6-2.6c-10.9-19.1-34.6-56.3-45.8-74.1c-1-1.6-4.6-3.3-8.2-3.3c-4.6,0-5.3,1-5.3,3v73.7c0,2-1.3,3.3-3.3,3.3
		h-36.2c-2,0-3.3-1.3-3.3-3.3V216.4c0-2,1.3-3.3,3.3-3.3h36.2c2,0,3.3,1.3,3.3,3.3V341.5z"/>
	<path d="M5080.6,440.6c-12.2,12.5-29.6,17.8-57.3,17.8c-27.6,0-44.1-5.3-56-17.8c-12.8-13.8-22.1-42.1-22.1-75
		c0-33.2,8.9-59.2,22.1-72.7c11.8-12.8,29.6-17.1,56.6-17.1c28,0,44.4,4.6,56.6,17.1c12.5,13.8,21.1,39.5,21.1,72.7
		C5101.6,398.5,5093.1,426.8,5080.6,440.6z M4999.3,418.2c4.3,4.9,9.9,7.2,24,7.2c15.1,0,20.7-2.3,24.7-7.2c6.6-7.6,9.9-29,9.9-53
		c0-24.4-3.3-42.5-9.9-50.4c-4-4.9-9.5-6.9-24-6.9c-14.8,0-20.4,2-24.7,6.9c-6.6,7.9-10.2,26-10.2,50.4
		C4989.1,389.2,4992.7,410.6,4999.3,418.2z"/>
	<path d="M5231.3,455.1h-58.9c-1.6,0-3-1.6-3.3-2.6c-13.2-41.5-41.1-146.8-45.8-170.5c0-2,0.7-3,3-3h39.5c2,0,2.6,1.3,3,3
		c7.9,41.8,21.4,102.4,30,135.6c0.3,1.6,1.3,2,4.3,2c3.3,0,4.3-0.3,4.6-2c9.2-33.2,22.4-93.8,30.3-135.6c0.3-2,2-3,4.3-3h36.2
		c2,0,2.6,1.6,2.6,3.3c-4.3,23.4-32.9,130.3-45.8,170.2C5234.6,454.4,5233.9,455.1,5231.3,455.1z"/>
	<path d="M5347.5,279c2,0,3.3,1.3,3.3,3.3v109.3c0,25,6.6,32.6,33.2,32.6c8.2,0,16.1-0.7,22.4-2c2-0.7,3-1.3,3-3.3V282.3
		c0-2,1.3-3.3,3.3-3.3h36.2c2,0,3.3,1.3,3.3,3.3v165.9c0,2-1.3,3-3.3,3.3c-17.8,3.3-45.1,6.9-65.5,6.9c-57.9,0-75.7-15.8-75.7-63.9
		V282.3c0-2,1.3-3.3,3.3-3.3H5347.5z M5367.6,256.3c-2,0-3.3-1.3-3.3-3.3l26.7-60.2c1.3-2.3,3-3.3,4.9-3.3h31.9c2,0,3.6,1.3,3.3,3.3
		l-38.8,58.3c-3,4.6-5.3,5.3-13.2,5.3H5367.6z"/>
	<path d="M5614.8,458.4c-26.3,0-39.8-12.2-39.8-36.2v-108c0-1.3-0.7-2-2-2h-22.7c-2,0-3.3-1.3-3.3-3.3v-26.7c0-2,1.3-3.3,3.3-3.3
		h22.7c1.3,0,2-0.7,2-2v-41.1c0-2,1.3-3.3,3.3-3.3h36.5c2,0,3.3,1.3,3.3,3.3V277c0,1.3,0.7,2,2,2h27.6c2,0,3.3,1.3,3.3,3.3v26.7
		c0,2-1.3,3.3-3.3,3.3h-27.6c-1.3,0-2,0.7-2,2V412c0,10.9,3.6,13.8,14.2,13.8h10.2c1.6,0,3.3,0.7,3.3,3.3l-1,22.1
		c0,2-1.6,3.9-3.3,4.3C5634.2,457.1,5624,458.4,5614.8,458.4z"/>
	<path d="M5719.5,458.4c-27.3,0-41.1-9.5-41.1-40.2V216.8c0-2.3,1.3-3.6,3.3-3.6h36.5c2,0,3.3,1.3,3.3,3.6v195.5
		c0,10.5,4.3,13.8,13.8,13.8h10.5c1.6,0,3.3,0.7,3.3,3.3l-1,21.7c0,2-1.6,3.6-3.3,3.9C5737.6,457.1,5729.7,458.4,5719.5,458.4z"/>
	<path d="M5788.9,313.5c-2,0.3-4.6,0.3-4.9-1.6l-2.3-25.3c-0.3-2,0-3.9,2-4.6c12.5-3.6,35.5-6.3,57.6-6.3
		c40.8,0,65.5,13.8,65.5,52.3v119.5c0,2-0.7,3.6-4.3,4.9c-11.5,3.6-34.9,5.9-57.6,5.9c-59.2,0-77-11.2-77-49
		c0-33.6,7.6-48.7,56-54.6l38.8-4.9c1.3-0.3,2-0.7,2-2v-13.2c0-19.7-9.2-24.4-34.9-24.4C5817.9,310.3,5799.5,311.9,5788.9,313.5z
		 M5864.6,378.7c0-1.3-0.7-2-2-2h-22.1c-23.7,0-30.9,4.3-30.9,28c0,23.4,5.9,26,31.9,26c7.6,0,16.5-0.7,20.7-1.6
		c2-0.7,2.3-1.3,2.3-2.3V378.7z"/>
	<path d="M6020.7,458.4c-54,0-73.4-31.9-73.4-90.2c0-56.9,18.8-92.5,73.1-92.5c15.5,0,28.6,2,35.9,4.6c1,0.3,1.6,0.7,1.6,2.3
		l-1.3,28.3c0,1-1,2-2.6,1.3c-6.6-1.6-16.5-3.3-25.7-3.3c-27.3,0-35.5,13.5-35.5,59.6c0,42.8,7.9,56,35.9,56c8.6,0,18.4-1.3,25-3
		c1.3-0.3,3-0.7,3.3,1l2,28.3c0.3,1.6-0.3,2.3-1.3,3C6048,456.7,6034.1,458.4,6020.7,458.4z M5975.2,193.1c5.9,0,7.9,0.3,11.5,4.6
		l26,30.9c1,0.7,2,1,3.3,1c2,0,3-0.3,4-1l26.7-30.9c3.6-4.3,4.9-4.6,10.5-4.6h15.8c2,0,3.6,1.3,3.3,3.3l-38.8,57.3
		c-1.3,2-3,3.3-4.9,3.3h-31.9c-2,0-3.6-1.3-4.9-3.3l-39.2-57.3c0-2,1.3-3.3,3.3-3.3H5975.2z"/>
</g>
</svg>
